<?xml version="1.0" standalone="no"?>
<!DOCTYPE svg PUBLIC "-//W3C//DTD SVG 20010904//EN"
 "http://www.w3.org/TR/2001/REC-SVG-20010904/DTD/svg10.dtd">
<svg version="1.0" xmlns="http://www.w3.org/2000/svg"
 width="1010.000000pt" height="663.000000pt" viewBox="0 0 1010.000000 663.000000"
 preserveAspectRatio="xMidYMid meet">

<g transform="translate(0.000000,663.000000) scale(0.100000,-0.100000)"
fill="#000000" stroke="none">
<path d="M1065 5356 c-17 -7 -36 -25 -43 -40 -9 -21 -12 -502 -12 -2182 0
-2311 -3 -2184 47 -2224 61 -48 -14 -45 1292 -48 1379 -3 1317 -6 1340 65 9
29 11 525 9 2178 -2 1177 -6 2151 -9 2165 -9 38 -39 81 -66 91 -14 5 -548 9
-1276 9 -1013 -1 -1258 -3 -1282 -14z m2243 -388 c9 -9 12 -215 12 -864 0
-752 -2 -853 -15 -864 -12 -10 -218 -13 -982 -15 -922 -1 -968 0 -985 17 -17
17 -18 60 -18 862 0 754 2 846 16 860 14 14 117 16 988 16 743 0 975 -3 984
-12z m-8 -2308 c26 -26 26 -70 -1 -104 l-20 -26 -945 0 c-1018 0 -993 -1
-1009 51 -9 26 1 63 21 83 14 14 116 16 975 16 946 0 959 0 979 -20z m-632
-349 c24 -5 50 -17 58 -27 18 -24 10 -72 -17 -99 -19 -20 -35 -20 -652 -23
-347 -2 -647 0 -665 3 -91 17 -98 124 -10 145 45 11 1232 11 1286 1z m588
-613 c147 -68 207 -257 127 -400 -33 -59 -105 -119 -163 -137 -26 -8 -286 -11
-893 -11 -979 0 -923 -5 -1012 85 -119 119 -114 301 11 415 76 69 12 64 954
70 470 3 873 3 895 1 22 -2 58 -12 81 -23z"/>
<path d="M4415 5071 c-103 -25 -169 -107 -169 -211 -1 -95 60 -174 154 -200
56 -15 378 -14 422 2 49 18 96 61 119 111 51 114 -15 257 -135 292 -53 16
-333 20 -391 6z m393 -40 c52 -27 79 -59 92 -112 21 -82 -19 -167 -94 -203
-124 -59 -265 51 -243 190 19 114 143 177 245 125z"/>
<path d="M4477 4049 c-14 -8 -17 -18 -12 -36 3 -13 2 -22 -2 -20 -7 4 -2
-1603 5 -1610 1 -2 438 -3 971 -3 797 0 971 2 980 13 16 20 16 1634 0 1653
-10 12 -167 14 -968 14 -658 -1 -962 -4 -974 -11z"/>
</g>
</svg>
